<?xml version="1.0" standalone="no"?>
<!DOCTYPE svg PUBLIC "-//W3C//DTD SVG 20010904//EN"
 "http://www.w3.org/TR/2001/REC-SVG-20010904/DTD/svg10.dtd">
<svg version="1.0" xmlns="http://www.w3.org/2000/svg"
 width="136.000000pt" height="136.000000pt" viewBox="0 0 136.000000 136.000000"
 preserveAspectRatio="xMidYMid meet">
<metadata>
Created by potrace 1.11, written by Peter Selinger 2001-2013
</metadata>
<g transform="translate(0.000000,136.000000) scale(0.100000,-0.100000)"
fill="#000000" stroke="none">
<path d="M248 1348 c-22 -7 -28 -16 -28 -39 0 -32 -16 -40 -23 -11 -4 16 -5
16 -6 -1 0 -10 6 -20 14 -23 21 -9 45 14 45 42 0 15 6 24 15 24 8 0 15 5 15
10 0 6 -1 10 -2 9 -2 0 -15 -5 -30 -11z m-11 -50 c-3 -8 -6 -5 -6 6 -1 11 2
17 5 13 3 -3 4 -12 1 -19z"/>
<path d="M414 1308 c44 -100 60 -128 70 -128 5 0 -13 -12 -42 -26 -62 -31
-107 -80 -123 -134 -8 -27 -17 -39 -26 -36 -7 3 -13 1 -13 -3 0 -5 6 -11 13
-14 20 -6 -13 -39 -35 -34 -10 3 -18 2 -18 -3 0 -12 29 -20 35 -10 4 6 13 10
22 10 12 0 14 -7 8 -32 -13 -53 -10 -151 4 -186 11 -26 19 -32 42 -32 24 0 29
-4 29 -25 0 -17 6 -25 18 -25 13 0 14 -2 3 -9 -11 -7 -11 -9 0 -13 20 -7 -3
-32 -41 -48 -35 -15 -37 -27 -10 -80 45 -89 283 -302 340 -305 16 -1 28 1 27
5 -1 4 38 40 86 80 48 39 86 68 85 63 -2 -6 30 -80 71 -166 l74 -157 164 0
163 0 0 680 0 680 -485 0 -485 0 24 -52z m284 -115 c-15 -2 -42 -2 -60 0 -18
2 -6 4 27 4 33 0 48 -2 33 -4z m35 -70 c-29 -2 -77 -2 -105 0 -29 2 -6 3 52 3
58 0 81 -1 53 -3z m-91 -77 c7 4 8 2 4 -5 -9 -13 -26 -5 -25 12 0 9 2 8 6 -1
2 -6 10 -9 15 -6z m58 -42 c0 -2 -9 0 -20 6 -11 6 -20 13 -20 16 0 2 9 0 20
-6 11 -6 20 -13 20 -16z m-160 -24 l35 -29 -51 -1 c-28 0 -59 -6 -70 -15 -17
-13 -10 -14 77 -15 76 0 107 -5 144 -21 25 -11 49 -18 52 -15 3 2 -5 19 -18
37 -12 17 -18 30 -13 28 73 -34 144 -74 144 -81 0 -6 -7 -8 -15 -4 -16 6 -20
-10 -9 -38 8 -20 28 -21 43 -2 8 10 9 26 2 55 -9 41 -9 41 20 41 l29 0 0 -82
c0 -118 -12 -154 -60 -178 -76 -39 -256 -43 -381 -10 -45 12 -54 36 -64 160
-6 75 -6 75 35 138 22 34 46 62 53 62 6 0 28 -14 47 -30z m91 3 c13 -16 12
-17 -3 -4 -10 7 -18 15 -18 17 0 8 8 3 21 -13z m229 -28 c0 -12 -29 -3 -34 10
-4 13 -2 14 14 5 11 -6 20 -13 20 -15z m207 -197 c-3 -8 -6 -5 -6 6 -1 11 2
17 5 13 3 -3 4 -12 1 -19z m-583 -154 c12 -12 16 -12 16 -2 1 7 7 -2 15 -21
18 -39 18 -44 5 -36 -6 3 -7 -1 -3 -10 4 -13 8 -14 14 -4 6 10 13 6 29 -14 29
-36 45 -52 86 -83 l34 -26 50 37 c27 20 56 46 64 57 9 12 19 17 27 13 7 -5 10
-4 5 3 -3 6 3 26 15 44 20 31 22 20 4 -27 -6 -14 0 -11 18 10 15 17 27 36 27
43 0 6 5 12 10 12 18 0 11 -28 -16 -59 -14 -17 -53 -47 -87 -68 l-62 -38 49
-3 c32 -2 52 1 57 10 5 7 9 9 9 4 0 -4 11 -1 25 8 31 20 32 14 3 -14 -44 -41
-118 -71 -118 -47 0 8 -6 20 -14 26 -20 16 -49 -14 -40 -41 5 -17 3 -19 -15
-13 -15 5 -21 2 -21 -9 0 -9 9 -16 20 -16 11 0 20 -4 20 -10 0 -5 -14 -10 -31
-10 -29 0 -30 2 -28 38 3 53 -8 74 -32 61 -10 -5 -19 -7 -19 -4 0 4 -5 3 -11
-1 -7 -4 -8 -9 -1 -13 5 -3 13 -20 16 -38 6 -28 5 -31 -12 -26 -30 8 -37 -16
-8 -27 14 -5 26 -15 26 -21 0 -7 8 -9 23 -5 46 14 75 17 81 7 8 -13 -60 -34
-88 -27 -30 7 -118 85 -110 97 3 5 0 8 -8 7 -7 -2 -12 2 -11 9 2 7 -3 10 -11
7 -12 -5 -61 48 -100 108 -18 28 -18 28 10 38 22 9 29 8 36 -4 20 -36 157
-108 186 -98 17 5 -2 21 -59 50 -69 35 -113 84 -105 116 7 30 9 31 30 10z
m165 -36 c17 -18 26 -35 20 -37 -15 -5 -74 29 -88 50 -21 35 34 23 68 -13z
m389 -33 c-3 -3 -9 2 -12 12 -6 14 -5 15 5 6 7 -7 10 -15 7 -18z m-409 -225
c-5 -10 -8 5 -8 40 1 55 1 55 9 15 4 -22 4 -47 -1 -55z m111 39 c0 -31 -4 -48
-10 -44 -17 11 -12 95 7 95 2 0 3 -23 3 -51z m50 -17 c0 -10 -22 -32 -32 -32
-4 0 -8 9 -8 20 0 13 7 20 20 20 11 0 20 -4 20 -8z"/>
<path d="M516 875 c4 -9 0 -15 -10 -15 -20 0 -20 -10 -2 -35 16 -22 46 -14 46
14 0 30 -11 51 -26 51 -8 0 -11 -6 -8 -15z"/>
<path d="M565 732 c-1 -2 -1 -11 2 -20 12 -46 106 -75 163 -52 35 14 73 57 64
72 -4 6 -13 -4 -21 -20 -8 -17 -28 -36 -44 -42 -42 -18 -110 -7 -133 22 l-18
23 98 5 99 5 -103 5 c-57 3 -105 4 -107 2z"/>
<path d="M541 367 c-13 -21 -12 -21 5 -5 10 10 16 20 13 22 -3 3 -11 -5 -18
-17z"/>
<path d="M107 1283 c-3 -5 5 -8 18 -8 13 0 21 3 18 8 -2 4 -10 7 -18 7 -8 0
-16 -3 -18 -7z"/>
<path d="M145 1250 c-10 -12 -25 -18 -32 -16 -7 3 -13 1 -13 -4 0 -17 29 -11
47 9 9 11 20 18 25 15 4 -3 8 0 8 5 0 17 -15 13 -35 -9z"/>
<path d="M72 680 c0 -14 2 -19 5 -12 2 6 2 18 0 25 -3 6 -5 1 -5 -13z"/>
<path d="M207 386 c-4 -10 -7 -25 -6 -34 0 -11 4 -9 10 7 5 13 8 29 6 35 -2 5
-6 2 -10 -8z"/>
<path d="M147 349 c7 -9 10 -19 6 -23 -4 -4 1 -4 10 0 10 3 17 7 15 8 -2 1
-12 8 -23 16 -18 14 -19 13 -8 -1z"/>
<path d="M813 118 c-16 -8 -23 -20 -23 -40 0 -16 -4 -27 -9 -23 -5 3 -13 0
-17 -6 -5 -9 -11 -7 -21 6 -12 18 -13 18 -13 -1 0 -11 -6 -26 -12 -33 -11 -11
-9 -12 7 -4 11 6 37 18 57 28 27 13 38 25 40 44 2 18 9 26 21 25 9 -1 17 2 17
7 0 12 -19 10 -47 -3z"/>
<path d="M354 75 c-3 -8 -4 -20 -1 -27 3 -7 6 -3 6 9 1 12 7 24 14 26 9 4 9 6
-1 6 -7 1 -15 -6 -18 -14z"/>
<path d="M690 66 c0 -2 7 -7 16 -10 8 -3 12 -2 9 4 -6 10 -25 14 -25 6z"/>
<path d="M280 55 c0 -18 19 -40 26 -32 4 4 0 15 -9 24 -9 10 -17 13 -17 8z"/>
<path d="M665 10 c3 -5 14 -10 23 -10 15 0 15 2 2 10 -20 13 -33 13 -25 0z"/>
</g>
</svg>
